HIERARCHY
ROOT Hips
{
	OFFSET	0.00	0.00	0.00
	CHANNELS 6 Xposition Yposition Zposition Zrotation Xrotation Yrotation
	JOINT LeftUpLeg
	{
		OFFSET	 0.126116	-0.065224	 0.014019
		CHANNELS 3 Zrotation Xrotation Yrotation
		JOINT LeftLeg
		{
			OFFSET	 0.000000	 0.569914	 0.000000
			CHANNELS 3 Zrotation Xrotation Yrotation
			JOINT LeftFoot
			{
				OFFSET	 0.000000	 0.544423	 0.000000
				CHANNELS 3 Zrotation Xrotation Yrotation
				JOINT LeftToeBase
				{
					OFFSET	 0.000000	 0.207117	 0.000000
					CHANNELS 3 Zrotation Xrotation Yrotation
					End Site
					{
						OFFSET	 0.000000	 0.207117	 0.000000
					}
				}
			}
		}
	}
	JOINT RightUpLeg
	{
		OFFSET	-0.124023	-0.065224	 0.008373
		CHANNELS 3 Zrotation Xrotation Yrotation
		JOINT RightLeg
		{
			OFFSET	 0.000000	 0.570047	 0.000000
			CHANNELS 3 Zrotation Xrotation Yrotation
			JOINT RightFoot
			{
				OFFSET	 0.000000	 0.544354	 0.000000
				CHANNELS 3 Zrotation Xrotation Yrotation
				JOINT RightToeBase
				{
					OFFSET	 0.000000	 0.207540	 0.000000
					CHANNELS 3 Zrotation Xrotation Yrotation
					End Site
					{
						OFFSET	 0.000000	 0.207540	 0.000000
					}
				}
			}
		}
	}
	JOINT Spine
	{
		OFFSET	 0.000184	 0.117403	 0.007763
		CHANNELS 3 Zrotation Xrotation Yrotation
		JOINT Spine1
		{
			OFFSET	 0.000000	 0.137269	 0.000000
			CHANNELS 3 Zrotation Xrotation Yrotation
			JOINT Spine2
			{
				OFFSET	 0.000000	 0.156879	 0.000000
				CHANNELS 3 Zrotation Xrotation Yrotation
				JOINT LeftShoulder
				{
					OFFSET	 0.080501	 0.160143	 0.002496
					CHANNELS 3 Zrotation Xrotation Yrotation
					JOINT LeftArm
					{
						OFFSET	 0.000000	 0.164363	 0.000000
						CHANNELS 3 Zrotation Xrotation Yrotation
						JOINT LeftForeArm
						{
							OFFSET	 0.000000	 0.364576	 0.000000
							CHANNELS 3 Zrotation Xrotation Yrotation
							JOINT LeftHand
							{
								OFFSET	 0.000000	 0.360812	 0.000000
								CHANNELS 3 Zrotation Xrotation Yrotation
								JOINT LeftHandIndex1
								{
									OFFSET	 0.000000	 0.086006	 0.000000
									CHANNELS 3 Zrotation Xrotation Yrotation
									JOINT LeftHandIndex2
									{
										OFFSET	 0.000000	 0.047237	 0.000000
										CHANNELS 3 Zrotation Xrotation Yrotation
										JOINT LeftHandIndex3
										{
											OFFSET	-0.004284	 0.038165	 0.000551
											CHANNELS 3 Zrotation Xrotation Yrotation
											End Site
											{
												OFFSET	-0.004284	 0.038165	 0.000551
											}
										}
									}
								}
							}
						}
					}
				}
				JOINT Neck
				{
					OFFSET	 0.000000	 0.176489	 0.000000
					CHANNELS 3 Zrotation Xrotation Yrotation
					JOINT Head
					{
						OFFSET	 0.000000	 0.077941	 0.001747
						CHANNELS 3 Zrotation Xrotation Yrotation
						End Site
						{
							OFFSET	 0.000000	 0.077941	 0.001747
						}
					}
				}
				JOINT RightShoulder
				{
					OFFSET	-0.080363	 0.159706	-0.000306
					CHANNELS 3 Zrotation Xrotation Yrotation
					JOINT RightArm
					{
						OFFSET	 0.000000	 0.164196	 0.000000
						CHANNELS 3 Zrotation Xrotation Yrotation
						JOINT RightForeArm
						{
							OFFSET	 0.000000	 0.365611	 0.000000
							CHANNELS 3 Zrotation Xrotation Yrotation
							JOINT RightHand
							{
								OFFSET	 0.000000	 0.360648	 0.000000
								CHANNELS 3 Zrotation Xrotation Yrotation
								JOINT RightHandIndex1
								{
									OFFSET	 0.000000	 0.069977	 0.000000
									CHANNELS 3 Zrotation Xrotation Yrotation
									JOINT RightHandIndex2
									{
										OFFSET	 0.000000	 0.052305	 0.000000
										CHANNELS 3 Zrotation Xrotation Yrotation
										JOINT RightHandIndex3
										{
											OFFSET	 0.009002	 0.042196	 0.000782
											CHANNELS 3 Zrotation Xrotation Yrotation
											End Site
											{
												OFFSET	 0.009002	 0.042196	 0.000782
											}
										}
									}
								}
							}
						}
					}
				}
			}
		}
	}
}
MOTION
Frames:    7
Frame Time: 0.03333334
-0.045735	 1.228715	-3.537242	-2.917750	-0.309311	-174.715100	 178.939300	 13.573870	-31.886000	 4.881566	-32.700890	 4.286164	 0.185228	 81.402330	 9.513208	 1.481854	 30.860070	-2.797449	 159.351300	 25.347660	 35.716550	-8.837357	-63.516300	 1.750917	-0.877847	 73.846920	 2.806538	-1.722314	 33.535580	 3.814259	-5.441875	 4.157854	 37.214940	-0.183878	 2.640532	-0.248326	-0.168566	-3.394272	-0.480664	-121.644600	 7.115642	 93.904950	 40.606270	 26.422910	-18.807480	 6.420945	-0.225926	-11.412460	-5.864884	 8.120119	 8.874401	 4.676831	 19.504010	-1.711987	-5.862555	 22.018220	 2.434175	 5.346575	 4.692694	-0.162679	-0.175741	-4.854525	-0.092136	-2.276272	-1.939796	-3.298584	 118.571400	-0.129720	-90.777790	-3.873983	 45.785720	-2.587318	-6.805216	-0.186642	 11.389450	-5.961185	 9.862067	-11.725640	-2.357562	 25.395500	 1.288655	 15.779050	 44.688550	-11.726970	-8.531671	 23.232220	-1.177222
-0.044114	 1.226505	-3.668393	-2.919712	-1.502759	-173.176100	 178.705300	 6.814804	-29.711990	 4.415796	-30.151510	 6.244794	 12.048710	 85.280550	-5.666681	 1.540976	 31.596150	-2.825232	 158.176300	 34.340430	 41.485100	-4.931237	-48.822200	 7.047128	-8.733204	 73.388920	 4.931082	-1.686274	 33.250770	 3.317668	-4.768551	 3.919770	 35.254100	-0.064597	 3.340330	-0.931776	-0.184369	-3.940429	-0.835531	-121.478700	 8.234423	 94.450850	 39.490180	 12.962890	-15.211440	 4.737840	-0.205793	-4.272536	 5.853719	 13.363620	 0.519181	 4.683990	 19.606150	-1.720351	-5.862520	 22.035950	 2.436137	 5.348137	 4.729444	-0.162016	-0.176011	-4.859179	 0.057175	-1.943886	-2.378632	-3.330193	 118.300100	-0.610354	-90.547250	 3.777040	 42.889800	-6.962050	-5.447582	-0.184212	 4.247137	-5.814949	 15.056240	-13.504050	-2.028904	 23.131720	 1.125513	 15.208010	 42.320510	-10.822030	-8.535255	 21.062370	-1.034548
-0.038780	 1.213455	-3.832027	-2.791450	-2.538105	-171.640400	 179.295900	-2.039053	-27.076000	 3.765176	-26.355170	 7.361038	 27.644470	 87.130780	-25.677960	 1.870186	 35.495070	-2.992055	 167.743100	 31.281270	 37.946270	-0.792455	-10.421940	 11.481390	-5.229795	 64.109400	-5.771064	-1.694131	 33.442460	 2.899044	-3.742418	 4.001665	 29.394910	 0.154760	 3.777486	-1.587498	-0.219561	-4.378331	-1.253903	-121.289400	 9.293628	 94.961380	 37.040930	 3.894651	-13.712150	 4.682481	-0.194312	 5.048178	 19.523700	 12.987690	-8.453341	 4.764005	 19.845450	-1.762502	-5.862068	 22.308770	 2.466383	 5.364378	 5.111208	-0.155239	-0.169263	-4.907909	 0.210949	-1.584135	-2.786502	-3.154992	 118.120200	-1.165360	-90.287700	 9.639312	 39.306680	-9.522058	-5.548469	-0.181627	-5.074206	-3.176854	 19.741110	-17.377920	-1.677092	 19.369450	 0.962316	 14.439990	 38.549760	-9.511180	-8.528610	 17.462920	-0.802255
-0.022123	 1.171212	-4.062507	-2.157764	-2.270215	-170.480000	-176.818100	-13.323190	-23.307770	 3.877907	-27.032380	 4.452626	-33.228520	 81.443200	 28.397110	 3.868775	 52.754780	-4.133634	 166.519200	 40.615640	 35.515870	-1.757587	-22.189930	 9.926340	-11.431880	 71.249150	 0.360309	-1.851379	 35.272060	 2.980669	-1.754639	 4.773861	 14.565740	 0.556941	 3.562774	-2.414549	-0.188893	-4.375184	-1.333412	-121.060000	 9.509376	 95.045370	 33.698930	 1.455455	-15.741830	 7.182875	-0.199283	 18.353370	 25.182650	 9.792753	-11.771370	 5.079349	 20.528800	-1.916206	-5.861991	 23.556670	 2.605490	 5.435182	 6.784372	-0.126788	-0.133654	-5.114459	 0.301726	-1.356260	-2.639150	-2.231082	 118.465500	-1.836408	-89.986760	 11.026210	 36.155390	-7.223500	-7.980231	-0.182338	-18.378460	 4.810080	 19.294090	-26.771490	-1.417524	 11.319210	 0.861415	 13.296700	 30.903090	-7.216177	-8.465925	 9.828837	-0.319162
-0.011415	 1.175941	-4.190996	-0.700878	-0.719468	-168.517600	-171.679700	-13.841050	-22.322340	 5.340844	-35.078350	 4.006696	-28.689190	 61.974070	 22.041700	 7.629595	 69.140360	-6.307762	 169.194500	 35.496170	 34.167210	-2.319808	-28.293960	 10.410170	-18.666360	 63.454290	 2.957446	-1.787743	 34.540910	 2.947103	 0.388117	 5.525469	 3.786333	 0.581613	 2.513960	-2.659919	 0.116414	-3.393768	-1.533009	-120.971900	 8.934821	 94.750210	 35.243030	 1.053253	-14.647710	 8.526696	-0.204322	 25.242850	 18.428700	 16.230160	-10.784120	 5.045117	 20.943270	-1.930285	-5.864127	 24.496560	 2.711159	 5.483419	 7.932003	-0.108430	-0.093996	-5.178231	 0.255398	-1.691311	-1.303888	-1.971810	 119.051100	-2.379176	-89.743780	 8.420660	 37.409350	-4.735582	-9.166390	-0.179741	-25.266430	 5.630445	 17.172020	-25.437170	-1.642359	 9.352785	 0.946998	 13.100680	 29.181790	-6.749860	-8.443692	 8.155319	-0.213638
-0.005898	 1.191523	-4.314710	 0.008518	 0.354243	-170.813000	-167.664300	-4.563478	-26.819800	 9.825712	-52.163240	 9.811665	-29.427500	 65.511980	 23.618160	 4.184806	 54.907010	-3.788872	 171.716400	 31.468330	 33.031840	-2.920842	-34.124440	 6.345863	-25.816990	 68.131050	 13.697970	-1.654837	 32.973240	 2.879356	 1.709423	 6.015402	-4.559352	 0.541056	 2.254330	-2.193923	 0.121814	-3.092244	-1.307163	-120.641700	 8.332130	 94.423000	 37.852590	 7.002133	-15.493940	 9.931104	-0.214073	 31.927740	 5.640845	 18.104610	-2.157891	 5.019571	 22.311030	-2.005336	-5.869412	 25.652170	 2.842255	 5.548061	 9.478256	-0.085154	-0.024820	-5.075241	 0.079389	-1.765501	-1.250726	-2.414529	 119.436100	-1.667045	-90.084220	 3.842258	 40.621350	-2.280741	-10.501770	-0.184293	-31.950020	-0.248881	 12.150040	-18.570510	-1.955301	 12.682140	 1.097042	 13.479150	 32.364460	-7.624681	-8.475208	 10.604170	-0.368012
 0.002230	 1.218906	-4.539327	 1.032704	 1.735860	-173.913500	-160.036900	 11.026580	-36.535700	 23.483580	-71.601570	 23.074520	-22.373820	 63.804780	 21.514700	 1.912037	 35.727370	-2.888353	 175.970400	 19.708320	 31.256210	-3.095760	-35.686470	 1.802083	-36.313740	 74.431350	 30.012300	-1.483135	 30.866150	 2.796773	 3.757848	 6.151840	-15.468000	 0.244049	 2.125581	-1.054606	 0.239170	-2.784968	-0.923853	-120.204100	 7.519284	 93.989490	 41.946950	 21.040570	-18.716890	 11.686950	-0.236233	 39.183810	-10.306830	 13.629780	 9.369054	 4.987913	 24.149260	-2.106371	-5.881283	 27.205210	 3.020718	 5.634443	 11.556400	-0.056491	 0.068629	-4.937167	-0.157301	-1.865448	-1.178464	-3.009444	 119.960100	-0.713658	-90.549140	-7.489059	 45.946370	 4.488049	-11.933910	-0.188509	-39.201900	-4.371649	 3.321733	-9.535859	-2.398137	 17.156090	 1.332432	 14.106580	 36.633640	-8.896030	-8.507337	 13.895700	-0.575613
